<?xml version="1.0" encoding="UTF-8" standalone="no"?>
<svg
   xmlns:dc="http://purl.org/dc/elements/1.1/"
   xmlns:cc="http://creativecommons.org/ns#"
   xmlns:rdf="http://www.w3.org/1999/02/22-rdf-syntax-ns#"
   xmlns:svg="http://www.w3.org/2000/svg"
   xmlns="http://www.w3.org/2000/svg"
   xmlns:sodipodi="http://sodipodi.sourceforge.net/DTD/sodipodi-0.dtd"
   xmlns:inkscape="http://www.inkscape.org/namespaces/inkscape"
   viewBox="0 0 752.00 460.00"
   version="1.1"
   id="svg34"
   sodipodi:docname="PilesOfCoal.svg"
   inkscape:version="0.92.1 r15371"
   inkscape:export-filename="D:\Personal GDrive\Opus\Articles\Jevons-Paradox\Graphics\PilesOfCoal.png"
   inkscape:export-xdpi="96"
   inkscape:export-ydpi="96">
  <metadata
     id="metadata38">
    <rdf:RDF>
      <cc:Work
         rdf:about="">
        <dc:format>image/svg+xml</dc:format>
        <dc:type
           rdf:resource="http://purl.org/dc/dcmitype/StillImage" />
      </cc:Work>
    </rdf:RDF>
  </metadata>
  <sodipodi:namedview
     pagecolor="#ffffff"
     bordercolor="#666666"
     borderopacity="1"
     objecttolerance="10"
     gridtolerance="10"
     guidetolerance="10"
     inkscape:pageopacity="0"
     inkscape:pageshadow="2"
     inkscape:window-width="2103"
     inkscape:window-height="1144"
     id="namedview36"
     showgrid="false"
     showguides="false"
     inkscape:zoom="0.75531915"
     inkscape:cx="404.52786"
     inkscape:cy="183.7653"
     inkscape:window-x="0"
     inkscape:window-y="0"
     inkscape:window-maximized="0"
     inkscape:current-layer="svg34" />
  <defs
     id="defs4">
    <style
       type="text/css"
       id="style2"><![CDATA[
    line, polyline, path, rect, circle {
      fill: none;
      stroke: #000000;
      stroke-linecap: round;
      stroke-linejoin: round;
      stroke-miterlimit: 10.00;
    }
  ]]></style>
  </defs>
  <rect
     width="100%"
     height="100%"
     style="stroke: none; fill: #FFFFFF;"
     id="rect6" />
  <rect
     x="0.00"
     y="0.00"
     width="752.00"
     height="460.00"
     style="stroke-width: 0.00; stroke: #FFFFFF; fill: #FFFFFF;"
     id="rect8" />
  <defs
     id="defs13">
    <clipPath
       id="cpMTMuOTQ3N3w3MzguMDUyfDQyNy4wMnw2NS4wNjg2">
      <rect
         x="13.95"
         y="65.07"
         width="724.10"
         height="361.95"
         id="rect10" />
    </clipPath>
  </defs>
  <rect
     x="13.95"
     y="65.07"
     width="724.10"
     height="361.95"
     style="stroke-width: 1.07; stroke: none;"
     clip-path="url(#cpMTMuOTQ3N3w3MzguMDUyfDQyNy4wMnw2NS4wNjg2)"
     id="rect15" />
  <defs
     id="defs20">
    <clipPath
       id="cpMHw3NTJ8NDYwfDA=">
      <rect
         x="0.00"
         y="0.00"
         width="752.00"
         height="460.00"
         id="rect17" />
    </clipPath>
  </defs>
  <g
     clip-path="url(#cpMHw3NTJ8NDYwfDA=)"
     id="g24">
    <text
       x="13.95"
       y="50.98"
       style="font-size: 16.00px; font-weight: bold; fill: #383F51; font-family: Lato;"
       textLength="423.19px"
       lengthAdjust="spacingAndGlyphs"
       id="text22">ACTUAL 1961 UK COAL USE VERSUS JEVON'S FORECAST</text>
  </g>
  <g
     clip-path="url(#cpMHw3NTJ8NDYwfDA=)"
     id="g28">
    <text
       x="13.95"
       y="31.309999"
       style="font-weight:bold;font-size:24px;font-family:Lato;fill:#383f51"
       textLength="254.92"
       lengthAdjust="spacingAndGlyphs"
       id="text26">JEVONS MISSED HIGH</text>
  </g>
  <g
     clip-path="url(#cpMHw3NTJ8NDYwfDA=)"
     id="g32">
    <text
       x="356.39"
       y="443.52"
       style="font-size: 12.00px; fill: #808490; font-family: Roboto Mono Medium;"
       textLength="381.66px"
       lengthAdjust="spacingAndGlyphs"
       id="text30">Source: &quot;The Coal Question&quot; by William Jevons, Gov.uk</text>
  </g>
  <path
     id="path14-3"
     style="fill:#808490;fill-opacity:1;fill-rule:nonzero;stroke:none;stroke-width:0.87206125;stroke-linecap:round;stroke-linejoin:round;stroke-miterlimit:10"
     d="m 208.6367,322.88072 c 0.0297,0 0.0602,-8.7e-4 0.0898,-0.003 0.83343,-0.0487 1.46942,-0.76404 1.4205,-1.59783 -0.0733,-1.25653 -0.10726,-2.40156 -0.10726,-3.4434 -0.009,-4.57579 0.66067,-7.14705 1.31611,-8.48862 v 28.30754 c 0,1.29074 1.04639,2.33637 2.33643,2.33637 1.2903,0 2.33677,-1.04563 2.33677,-2.33637 v -17.05963 h 0.87581 v 17.05963 c 0,1.29074 1.04648,2.33637 2.33643,2.33637 1.29039,0 2.33678,-1.04563 2.33678,-2.33637 v -28.29942 c 0.11188,0.22961 0.22499,0.49324 0.33644,0.80071 0.53283,1.47632 0.98072,3.89867 0.97889,7.67979 0,1.04222 -0.0331,2.18725 -0.10648,3.44378 -0.0488,0.83378 0.58742,1.5487 1.42102,1.59745 0.0296,0.002 0.0602,0.003 0.0897,0.003 0.79462,0 1.46087,-0.62061 1.50788,-1.42397 0.0759,-1.3102 0.11136,-2.51362 0.1118,-3.6201 -0.009,-5.70381 -0.91898,-8.86073 -2.1608,-10.75903 -0.62082,-0.94207 -1.34698,-1.54605 -2.0183,-1.88111 -0.43812,-0.22111 -0.83988,-0.32505 -1.16019,-0.37116 -0.14493,-0.0482 -0.29946,-0.0753 -0.46053,-0.0753 h -7.30116 c -0.16098,0 -0.31543,0.0269 -0.46028,0.075 -0.32039,0.0461 -0.72232,0.15005 -1.16088,0.37135 -1.01665,0.50401 -2.11257,1.60671 -2.87929,3.56058 -0.77587,1.96143 -1.2971,4.79726 -1.29963,9.07956 0,1.10648 0.0357,2.3099 0.11232,3.62048 0.0471,0.80317 0.71335,1.4234 1.50806,1.42359"
     inkscape:connector-curvature="0" />
  <path
     id="path16-7"
     style="fill:#808490;fill-opacity:1;fill-rule:nonzero;stroke:none;stroke-width:0.87206125;stroke-linecap:round;stroke-linejoin:round;stroke-miterlimit:10"
     d="m 215.50305,303.56164 c 2.28663,0.53217 4.57195,-0.88953 5.10434,-3.17657 0.53257,-2.28647 -0.88993,-4.57162 -3.17613,-5.10436 -2.28663,-0.53216 -4.57204,0.88953 -5.1047,3.17619 -0.53248,2.28686 0.88968,4.57201 3.17649,5.10474"
     inkscape:connector-curvature="0" />
  <path
     style="opacity:1;fill:none;fill-opacity:1;stroke:#f25f5c;stroke-width:4;stroke-linecap:butt;stroke-linejoin:round;stroke-miterlimit:4;stroke-dasharray:4, 4;stroke-dashoffset:12.68;stroke-opacity:1"
     inkscape:transform-center-x="0.031715062"
     inkscape:transform-center-y="-16.307354"
     d="m 709.22132,338.25113 c 0,0 -67.13694,52.10044 -333.22133,52.07059 C 109.91557,390.29059 42.778672,338.07034 42.778672,338.07034 L 209.53745,185.70042 c 0,0 88.66508,-92.064972 166.7587,-92.022136 78.04625,0.04256 166.46254,92.112436 166.46254,92.112436 z"
     id="path6070-4"
     inkscape:connector-curvature="0"
     sodipodi:nodetypes="czccscc" />
  <path
     style="opacity:1;fill:#f25f5c;fill-opacity:1;stroke:none;stroke-width:0;stroke-linecap:round;stroke-linejoin:round;stroke-miterlimit:4;stroke-dasharray:none"
     inkscape:transform-center-x="0.01303593"
     inkscape:transform-center-y="-6.7025594"
     d="m 512.95844,338.1199 c 0,0 -27.59429,21.41403 -136.9588,21.40177 -109.3645,-0.0125 -136.9587,-21.47607 -136.9587,-21.47607 l 68.54018,-62.62621 c 0,0 36.44265,-37.84002 68.54026,-37.82244 32.07808,0.0187 68.41844,37.85953 68.41844,37.85953 z"
     id="path6070-9-9"
     inkscape:connector-curvature="0"
     sodipodi:nodetypes="czccscc" />
  <text
     xml:space="preserve"
     style="font-style:normal;font-variant:normal;font-weight:normal;font-stretch:normal;font-size:10.46473503px;line-height:0%;font-family:'Roboto Mono Medium';-inkscape-font-specification:'Roboto Mono Medium, ';letter-spacing:0px;word-spacing:0px;fill:#f25f5c;fill-opacity:1;stroke:none;stroke-width:0.87206125px;stroke-linecap:butt;stroke-linejoin:miter;stroke-opacity:1;"
     x="241.84392"
     y="211.41718"
     id="text6200-5"><tspan
       sodipodi:role="line"
       id="tspan6202-3"
       x="241.84392"
       y="211.41718"
       style="font-style:normal;font-variant:normal;font-weight:normal;font-stretch:normal;font-size:24.90158653px;line-height:1.25;font-family:'Roboto Mono Medium';-inkscape-font-specification:'Roboto Mono Medium, ';fill:#f25f5c;fill-opacity:1;stroke-width:0.87206125px;">Jevons' Prediction</tspan></text>
  <text
     xml:space="preserve"
     style="font-style:normal;font-variant:normal;font-weight:normal;font-stretch:normal;font-size:10.46473503px;line-height:0%;font-family:'Roboto Mono Medium';-inkscape-font-specification:'Roboto Mono Medium, ';letter-spacing:0px;word-spacing:0px;fill:#ffffff;fill-opacity:1;stroke:none;stroke-width:0.87206125px;stroke-linecap:butt;stroke-linejoin:miter;stroke-opacity:1"
     x="331.58325"
     y="327.15973"
     id="text6200-6-1"><tspan
       sodipodi:role="line"
       id="tspan6202-1-1"
       x="331.58325"
       y="327.15973"
       style="font-style:normal;font-variant:normal;font-weight:normal;font-stretch:normal;font-size:24.90158653px;line-height:1.25;font-family:'Roboto Mono Medium';-inkscape-font-specification:'Roboto Mono Medium, ';fill:#ffffff;fill-opacity:1;stroke-width:0.87206125px">Actual</tspan></text>
  <text
     xml:space="preserve"
     style="font-style:normal;font-variant:normal;font-weight:normal;font-stretch:normal;font-size:10.46473503px;line-height:0%;font-family:'Roboto Mono Medium';-inkscape-font-specification:'Roboto Mono Medium, ';letter-spacing:0px;word-spacing:0px;fill:#ffffff;fill-opacity:1;stroke:none;stroke-width:0.87206125px;stroke-linecap:butt;stroke-linejoin:miter;stroke-opacity:1"
     x="337.19919"
     y="299.59787"
     id="text6200-6-7-78"><tspan
       sodipodi:role="line"
       id="tspan6202-1-7-1"
       x="337.19919"
       y="299.59787"
       style="font-style:normal;font-variant:normal;font-weight:normal;font-stretch:normal;font-size:43.57777786px;line-height:1.25;font-family:'Roboto Mono Medium';-inkscape-font-specification:'Roboto Mono Medium, ';fill:#ffffff;fill-opacity:1;stroke-width:0.87206125px">3.7</tspan></text>
  <text
     xml:space="preserve"
     style="font-style:normal;font-variant:normal;font-weight:normal;font-stretch:normal;font-size:10.46473503px;line-height:0%;font-family:'Roboto Mono Medium';-inkscape-font-specification:'Roboto Mono Medium, ';letter-spacing:0px;word-spacing:0px;fill:#f25f5c;fill-opacity:1;stroke:none;stroke-width:0.87206125px;stroke-linecap:butt;stroke-linejoin:miter;stroke-opacity:1;"
     x="349.74268"
     y="184.44629"
     id="text6200-6-7-7-9"><tspan
       sodipodi:role="line"
       id="tspan6202-1-7-2-6"
       x="349.74268"
       y="184.44629"
       style="font-style:normal;font-variant:normal;font-weight:normal;font-stretch:normal;font-size:43.57777786px;line-height:1.25;font-family:'Roboto Mono Medium';-inkscape-font-specification:'Roboto Mono Medium, ';fill:#f25f5c;fill-opacity:1;stroke-width:0.87206125px;">50</tspan></text>
</svg>
