<?xml version="1.0" encoding="UTF-8" standalone="no"?>
<!-- Created with Inkscape (http://www.inkscape.org/) -->

<svg
   xmlns:dc="http://purl.org/dc/elements/1.1/"
   xmlns:cc="http://creativecommons.org/ns#"
   xmlns:rdf="http://www.w3.org/1999/02/22-rdf-syntax-ns#"
   xmlns:svg="http://www.w3.org/2000/svg"
   xmlns="http://www.w3.org/2000/svg"
   xmlns:sodipodi="http://sodipodi.sourceforge.net/DTD/sodipodi-0.dtd"
   xmlns:inkscape="http://www.inkscape.org/namespaces/inkscape"
   width="512"
   height="512"
   viewBox="0 0 511.99999 511.99999"
   id="svg2"
   version="1.1"
   inkscape:version="0.91 r13725"
   sodipodi:docname="kdemaxima.svg">
  <defs
     id="defs4" />
  <sodipodi:namedview
     id="base"
     pagecolor="#ffffff"
     bordercolor="#666666"
     borderopacity="1.0"
     inkscape:pageopacity="0.0"
     inkscape:pageshadow="2"
     inkscape:zoom="1"
     inkscape:cx="271.34623"
     inkscape:cy="217.40649"
     inkscape:document-units="px"
     inkscape:current-layer="layer1"
     showgrid="false"
     units="px"
     inkscape:window-width="1440"
     inkscape:window-height="897"
     inkscape:window-x="-8"
     inkscape:window-y="-8"
     inkscape:window-maximized="1" />
  <metadata
     id="metadata7">
    <rdf:RDF>
      <cc:Work
         rdf:about="">
        <dc:format>image/svg+xml</dc:format>
        <dc:type
           rdf:resource="http://purl.org/dc/dcmitype/StillImage" />
        <dc:title></dc:title>
      </cc:Work>
    </rdf:RDF>
  </metadata>
  <g
     inkscape:label="Layer 1"
     inkscape:groupmode="layer"
     id="layer1"
     transform="translate(0,-540.36219)">
    <path
       style="color:#000000;font-style:normal;font-variant:normal;font-weight:normal;font-stretch:normal;font-size:medium;line-height:normal;font-family:sans-serif;text-indent:0;text-align:start;text-decoration:none;text-decoration-line:none;text-decoration-style:solid;text-decoration-color:#000000;letter-spacing:normal;word-spacing:normal;text-transform:none;direction:ltr;block-progression:tb;writing-mode:lr-tb;baseline-shift:baseline;text-anchor:start;white-space:normal;clip-rule:nonzero;display:inline;overflow:visible;visibility:visible;opacity:1;isolation:auto;mix-blend-mode:normal;color-interpolation:sRGB;color-interpolation-filters:linearRGB;solid-color:#000000;solid-opacity:1;fill:#000000;fill-opacity:1;fill-rule:evenodd;stroke:none;stroke-width:15;stroke-linecap:butt;stroke-linejoin:miter;stroke-miterlimit:4;stroke-dasharray:none;stroke-dashoffset:0;stroke-opacity:1;color-rendering:auto;image-rendering:auto;shape-rendering:auto;text-rendering:auto;enable-background:accumulate"
       d="M 349.08398 19.814453 L 349.08398 25.982422 L 355.25391 25.982422 L 355.25391 20.777344 A 255.31361 255.3136 0 0 0 352.61523 19.814453 L 349.08398 19.814453 z M 137.55859 38.322266 L 137.55859 44.492188 L 143.72852 44.492188 L 143.72852 38.322266 L 137.55859 38.322266 z M 349.08398 38.322266 L 349.08398 44.492188 L 355.25391 44.492188 L 355.25391 38.322266 L 349.08398 38.322266 z M 137.55859 56.830078 L 137.55859 63 L 143.72852 63 L 143.72852 56.830078 L 137.55859 56.830078 z M 349.08398 56.830078 L 349.08398 63 L 355.25391 63 L 355.25391 56.830078 L 349.08398 56.830078 z M 137.55859 75.339844 L 137.55859 81.507812 L 143.72852 81.507812 L 143.72852 75.339844 L 137.55859 75.339844 z M 349.08398 75.339844 L 349.08398 81.507812 L 355.25391 81.507812 L 355.25391 75.339844 L 349.08398 75.339844 z M 137.55859 93.847656 L 137.55859 100.01758 L 143.72852 100.01758 L 143.72852 93.847656 L 137.55859 93.847656 z M 349.08398 93.847656 L 349.08398 100.01758 L 355.25391 100.01758 L 355.25391 93.847656 L 349.08398 93.847656 z M 137.55859 112.35547 L 137.55859 118.52539 L 143.72852 118.52539 L 143.72852 112.35547 L 137.55859 112.35547 z M 349.08398 112.35547 L 349.08398 118.52539 L 355.25391 118.52539 L 355.25391 112.35547 L 349.08398 112.35547 z M 137.55859 130.86523 L 137.55859 137.0332 L 143.72852 137.0332 L 143.72852 130.86523 L 137.55859 130.86523 z M 349.08398 130.86523 L 349.08398 137.0332 L 355.25391 137.0332 L 355.25391 130.86523 L 349.08398 130.86523 z M 351.27734 147.60938 L 351.27734 147.61133 C 342.9002 147.62493 335.55439 151.86949 330.0332 158.02148 C 324.512 164.17346 320.28437 172.24369 316.52734 181.58984 C 309.01329 200.28215 303.49805 224.28851 297.55078 248.13281 C 291.6035 271.97712 285.21037 295.63903 276.7793 312.76758 C 272.56375 321.33187 267.84971 328.20179 262.80078 332.73828 C 257.75183 337.27477 252.60216 339.59466 246.24414 339.75 C 231.16214 340.1185 220.35084 335.42861 211.13477 327.89648 C 201.9187 320.36434 194.5105 309.7558 187.8418 298.67188 C 181.17311 287.58797 175.3126 276.11695 168.35938 266.86719 C 161.40613 257.61743 152.46413 249.97461 140.64453 249.97461 C 134.16455 249.97461 128.28997 252.65405 123.70312 256.64453 C 119.11628 260.63501 115.52705 265.83013 112.23242 271.70117 C 105.64316 283.44325 100.21326 298.14243 93.597656 312.51367 C 86.982056 326.88491 79.233146 340.80121 68.923828 350.80078 C 58.614509 360.80034 46.058895 367.15708 27.863281 367.06836 L 27.863281 367.07031 L 26.341797 367.07031 A 255.31361 255.3136 0 0 0 33.328125 380.29102 L 478.90234 380.29102 A 255.31361 255.3136 0 0 0 485.5332 367.07031 L 479.02539 367.07031 L 479.02539 367.06836 C 461.54751 367.22866 449.09612 355.996 438.17969 336.4668 C 427.26325 316.93761 419.05136 289.84349 411.68359 262.47852 C 404.31581 235.11355 397.76484 207.51418 389.2793 186.14062 C 385.03652 175.45385 380.34708 166.27374 374.33398 159.32812 C 368.32089 152.38251 360.39402 147.59462 351.27734 147.60938 z M 137.55859 149.37305 L 137.55859 155.54297 L 143.72852 155.54297 L 143.72852 149.37305 L 137.55859 149.37305 z M 351.29883 160.83008 C 356.03625 160.82308 359.93838 162.90063 364.33789 167.98242 C 368.73741 173.06423 373.0452 181.07776 376.99219 191.01953 C 384.88619 210.90306 391.48768 238.31162 398.91992 265.91602 C 406.35216 293.52042 414.58745 321.35515 426.64062 342.91797 C 431.89502 352.31792 438.09875 360.6644 445.36328 367.07227 L 70.052734 367.07227 C 72.923262 364.98968 75.62103 362.72355 78.128906 360.29102 C 90.417508 348.37163 98.725072 332.99172 105.60742 318.04102 C 112.48977 303.09032 117.99653 288.44348 123.76172 278.16992 C 126.6443 273.03315 129.58452 269.0519 132.38086 266.61914 C 134.18151 265.0526 135.8039 264.08892 137.55859 263.59766 L 137.55859 266.59375 L 143.72852 266.59375 L 143.72852 263.5332 C 148.61614 264.60588 152.90309 268.30564 157.79297 274.81055 C 163.6835 282.64659 169.55737 293.92439 176.51367 305.48633 C 183.46998 317.0483 191.57619 328.9847 202.76953 338.13281 C 213.96286 347.28092 228.45338 353.40744 246.56836 352.96484 C 256.20718 352.72934 264.75802 348.7528 271.63672 342.57227 C 278.51541 336.39173 283.95695 328.12279 288.64062 318.60742 C 298.00799 299.57673 304.3968 275.31798 310.37891 251.33398 C 316.36103 227.34999 321.92235 203.61991 328.79492 186.52344 C 332.23119 177.9752 336.02348 171.13873 339.87109 166.85156 C 343.71869 162.56438 347.09091 160.83689 351.29883 160.83008 z M 137.55859 167.88086 L 137.55859 174.05078 L 143.72852 174.05078 L 143.72852 167.88086 L 137.55859 167.88086 z M 349.08398 167.88086 L 349.08398 174.05078 L 355.25391 174.05078 L 355.25391 167.88086 L 349.08398 167.88086 z M 137.55859 186.39062 L 137.55859 192.55859 L 143.72852 192.55859 L 143.72852 186.39062 L 137.55859 186.39062 z M 349.08398 186.39062 L 349.08398 192.55859 L 355.25391 192.55859 L 355.25391 186.39062 L 349.08398 186.39062 z M 137.55859 204.89844 L 137.55859 211.06836 L 143.72852 211.06836 L 143.72852 204.89844 L 137.55859 204.89844 z M 349.08398 204.89844 L 349.08398 211.06836 L 355.25391 211.06836 L 355.25391 204.89844 L 349.08398 204.89844 z M 137.55859 223.40625 L 137.55859 229.57617 L 143.72852 229.57617 L 143.72852 223.40625 L 137.55859 223.40625 z M 349.08398 223.40625 L 349.08398 229.57617 L 355.25391 229.57617 L 355.25391 223.40625 L 349.08398 223.40625 z M 137.55859 241.91602 L 137.55859 248.08594 L 143.72852 248.08594 L 143.72852 241.91602 L 137.55859 241.91602 z M 349.08398 241.91602 L 349.08398 248.08594 L 355.25391 248.08594 L 355.25391 241.91602 L 349.08398 241.91602 z M 349.08398 260.42383 L 349.08398 266.59375 L 355.25391 266.59375 L 355.25391 260.42383 L 349.08398 260.42383 z M 137.55859 278.93164 L 137.55859 285.10156 L 143.72852 285.10156 L 143.72852 278.93164 L 137.55859 278.93164 z M 349.08398 278.93164 L 349.08398 285.10156 L 355.25391 285.10156 L 355.25391 278.93164 L 349.08398 278.93164 z M 137.55859 297.44141 L 137.55859 303.61133 L 143.72852 303.61133 L 143.72852 297.44141 L 137.55859 297.44141 z M 349.08398 297.44141 L 349.08398 303.61133 L 355.25391 303.61133 L 355.25391 297.44141 L 349.08398 297.44141 z M 137.55859 315.94922 L 137.55859 322.11914 L 143.72852 322.11914 L 143.72852 315.94922 L 137.55859 315.94922 z M 349.08398 315.94922 L 349.08398 322.11914 L 355.25391 322.11914 L 355.25391 315.94922 L 349.08398 315.94922 z M 137.55859 334.45703 L 137.55859 340.62695 L 143.72852 340.62695 L 143.72852 334.45703 L 137.55859 334.45703 z M 349.08398 334.45703 L 349.08398 340.62695 L 355.25391 340.62695 L 355.25391 334.45703 L 349.08398 334.45703 z M 137.55859 352.9668 L 137.55859 359.13672 L 143.72852 359.13672 L 143.72852 352.9668 L 137.55859 352.9668 z M 349.08398 352.9668 L 349.08398 359.13672 L 355.25391 359.13672 L 355.25391 352.9668 L 349.08398 352.9668 z "
       transform="translate(0,540.36219)"
       id="path4140" />
  </g>
</svg>
