<?xml version="1.0" encoding="UTF-8" standalone="no"?>
<svg
   xmlns:dc="http://purl.org/dc/elements/1.1/"
   xmlns:cc="http://creativecommons.org/ns#"
   xmlns:rdf="http://www.w3.org/1999/02/22-rdf-syntax-ns#"
   xmlns:svg="http://www.w3.org/2000/svg"
   xmlns="http://www.w3.org/2000/svg"
   xmlns:sodipodi="http://sodipodi.sourceforge.net/DTD/sodipodi-0.dtd"
   xmlns:inkscape="http://www.inkscape.org/namespaces/inkscape"
   viewBox="0 0 840 500"
   id="svg2"
   version="1.1"
   inkscape:version="0.91 r13725"
   sodipodi:docname="prediction.svg"
   width="840"
   height="500">
  <metadata
     id="metadata256">
    <rdf:RDF>
      <cc:Work
         rdf:about="">
        <dc:format>image/svg+xml</dc:format>
        <dc:type
           rdf:resource="http://purl.org/dc/dcmitype/StillImage" />
        <dc:title></dc:title>
      </cc:Work>
    </rdf:RDF>
  </metadata>
  <sodipodi:namedview
     pagecolor="#ffffff"
     bordercolor="#666666"
     borderopacity="1"
     objecttolerance="10"
     gridtolerance="10"
     guidetolerance="10"
     inkscape:pageopacity="0"
     inkscape:pageshadow="2"
     inkscape:window-width="1440"
     inkscape:window-height="897"
     id="namedview254"
     showgrid="false"
     inkscape:zoom="0.8025"
     inkscape:cx="526.17107"
     inkscape:cy="139.60009"
     inkscape:window-x="-8"
     inkscape:window-y="-8"
     inkscape:window-maximized="1"
     inkscape:current-layer="svg2" />
  <defs
     id="defs4">
    <style
       type="text/css"
       id="style6"><![CDATA[
    line, polyline, path, rect, circle {
      fill: none;
      stroke: #000000;
      stroke-linecap: round;
      stroke-linejoin: round;
      stroke-miterlimit: 10.00;
    }
  ]]></style>
  </defs>
  <defs
     id="defs12">
    <clipPath
       id="cp1">
      <rect
         x="65.349998"
         y="92.290001"
         width="721.70001"
         height="413.81"
         id="rect15"
         style="fill:none;stroke:#000000;stroke-linecap:round;stroke-linejoin:round;stroke-miterlimit:10" />
    </clipPath>
  </defs>
  <g
     clip-path="url(#cp1)"
     id="g79"
     transform="translate(0,-76)">
    <text
       x="787.69"
       y="359.29001"
       style="font-size:12.44999981px;font-family:'Exo 2'"
       id="text81">4.9 Tons</text>
  </g>
  <defs
     id="defs119">
    <clipPath
       id="cp2">
      <rect
         x="0"
         y="0"
         width="800"
         height="576"
         id="rect122"
         style="fill:none;stroke:#000000;stroke-linecap:round;stroke-linejoin:round;stroke-miterlimit:10" />
    </clipPath>
  </defs>
  <rect
     x="0"
     y="0"
     width="840"
     height="500"
     style="fill:#f1f1f1;stroke:none;stroke-width:1.01987052;stroke-linecap:round;stroke-linejoin:round;stroke-miterlimit:10"
     id="rect10" />
  <text
     id="text244"
     style="font-size:20px;font-family:'Exo 2 Light';fill:#212121"
     y="66.915001"
     x="30.558342">1961 UK coal consumption versus Jevons' prediction (tons per capita)</text>
  <text
     id="text248"
     style="font-size:35px;font-family:'Exo 2';fill:#212121"
     y="39.245003"
     x="30.168341">How much coal to Newcastle?</text>
  <text
     id="text252"
     style="font-size:15px;font-family:'Exo 2 Semi Bold';fill:#b6b6b6"
     y="489.58496"
     x="432.07233">SOURCE: &quot;The Coal Question&quot; by William Jevons, GOV.UK</text>
  <text
     id="text5323-2"
     style="font-size:14.83554745px;font-family:'Open Sans Semibold';fill:#b6b6b6"
     y="484.54526"
     x="30.166327"
     transform="scale(0.98903644,1.0110851)">DANIELH.IO</text>
  <path
     style="fill:#b6b6b6;fill-opacity:1;fill-rule:evenodd;stroke:#b6b6b6;stroke-width:0.9890365px;stroke-linecap:butt;stroke-linejoin:miter;stroke-miterlimit:10;stroke-opacity:1"
     d="m 31.218341,468.46174 782.554519,0"
     id="path7110"
     inkscape:connector-curvature="0"
     sodipodi:nodetypes="cc" />
  <g
     id="g4780"
     transform="translate(-883.42681,-27.464998)">
    <path
       inkscape:connector-curvature="0"
       d="m 1111.5099,390.86498 c 0.034,0 0.069,-10e-4 0.103,-0.003 0.9557,-0.0559 1.685,-0.87614 1.6289,-1.83225 -0.084,-1.44087 -0.123,-2.75389 -0.123,-3.94858 -0.01,-5.24709 0.7576,-8.19558 1.5092,-9.73397 l 0,32.4605 c 0,1.4801 1.1999,2.67913 2.6792,2.67913 1.4796,0 2.6796,-1.19903 2.6796,-2.67913 l 0,-19.56242 1.0043,0 0,19.56242 c 0,1.4801 1.2,2.67913 2.6792,2.67913 1.4797,0 2.6796,-1.19903 2.6796,-2.67913 l 0,-32.45118 c 0.1283,0.26329 0.258,0.5656 0.3858,0.91818 0.611,1.6929 1.1246,4.47063 1.1225,8.80647 0,1.19513 -0.038,2.50814 -0.1221,3.94902 -0.056,0.9561 0.6736,1.7759 1.6295,1.83181 0.034,0.002 0.069,0.003 0.1029,0.003 0.9112,0 1.6752,-0.71166 1.7291,-1.63288 0.087,-1.50241 0.1277,-2.88239 0.1282,-4.1512 -0.01,-6.5406 -1.0538,-10.16067 -2.4778,-12.33747 -0.7119,-1.08028 -1.5446,-1.77287 -2.3144,-2.15708 -0.5024,-0.25355 -0.9631,-0.37274 -1.3304,-0.42561 -0.1662,-0.0553 -0.3434,-0.0863 -0.5281,-0.0863 l -8.3723,0 c -0.1846,0 -0.3617,0.0308 -0.5278,0.086 -0.3674,0.0529 -0.8283,0.17206 -1.3312,0.42583 -1.1658,0.57795 -2.4225,1.84242 -3.3017,4.08294 -0.8897,2.24919 -1.4874,5.50106 -1.4903,10.41161 0,1.26881 0.041,2.64879 0.1288,4.15164 0.054,0.921 0.818,1.63222 1.7293,1.63244"
       style="fill:#b6b6b6;fill-opacity:1;fill-rule:nonzero;stroke:none;stroke-linecap:round;stroke-linejoin:round;stroke-miterlimit:10"
       id="path14-3" />
    <path
       inkscape:connector-curvature="0"
       d="m 1119.3836,368.71163 c 2.6221,0.61024 5.2427,-1.02003 5.8532,-3.6426 0.6107,-2.62192 -1.0205,-5.24232 -3.6421,-5.85321 -2.6221,-0.61024 -5.2428,1.02003 -5.8536,3.64216 -0.6106,2.62236 1.0202,5.24276 3.6425,5.85365"
       style="fill:#b6b6b6;fill-opacity:1;fill-rule:nonzero;stroke:none;stroke-linecap:round;stroke-linejoin:round;stroke-miterlimit:10"
       id="path16-7" />
    <path
       sodipodi:nodetypes="czccscc"
       inkscape:connector-curvature="0"
       id="path6070-4"
       d="m 1685.5345,408.49036 c 0,0 -76.9865,59.74401 -382.1077,59.70978 -305.12125,-0.0357 -382.10769,-59.91709 -382.10769,-59.91709 L 1112.5428,233.55918 c 0,0 101.673,-105.57168 191.2236,-105.52256 89.4963,0.0488 190.884,105.62611 190.884,105.62611 z"
       inkscape:transform-center-y="-16.307354"
       inkscape:transform-center-x="0.031715062"
       style="opacity:1;fill:none;fill-opacity:1;stroke:#2196f3;stroke-width:11.42199993;stroke-linecap:butt;stroke-linejoin:round;stroke-miterlimit:4;stroke-dasharray:11.42199993, 11.42199993;stroke-dashoffset:36.55039978;stroke-opacity:1" />
    <path
       sodipodi:nodetypes="czccscc"
       inkscape:connector-curvature="0"
       id="path6070-9-9"
       d="m 1460.4782,408.33988 c 0,0 -31.6426,24.55564 -157.0518,24.54158 -125.4092,-0.0143 -157.0517,-24.62678 -157.0517,-24.62678 l 78.5956,-71.81401 c 0,0 41.7891,-43.39147 78.5957,-43.3713 36.7842,0.0214 78.456,43.41384 78.456,43.41384 z"
       inkscape:transform-center-y="-6.7025594"
       inkscape:transform-center-x="0.01303593"
       style="opacity:1;fill:#2196f3;fill-opacity:1;stroke:none;stroke-width:0;stroke-linecap:round;stroke-linejoin:round;stroke-miterlimit:4;stroke-dasharray:none" />
    <text
       sodipodi:linespacing="125%"
       id="text6200-5"
       y="263.0488"
       x="1157.8077"
       style="font-style:normal;font-variant:normal;font-weight:bold;font-stretch:normal;font-size:114.21943665px;line-height:125%;font-family:sans-serif;-inkscape-font-specification:'sans-serif Bold';letter-spacing:0px;word-spacing:0px;fill:#2196f3;fill-opacity:1;stroke:none;stroke-width:1px;stroke-linecap:butt;stroke-linejoin:miter;stroke-opacity:1"
       xml:space="preserve"><tspan
         style="font-style:normal;font-variant:normal;font-weight:bold;font-stretch:normal;font-size:28.55485916px;font-family:sans-serif;-inkscape-font-specification:'sans-serif Bold';fill:#2196f3;fill-opacity:1"
         y="263.0488"
         x="1157.8077"
         id="tspan6202-3"
         sodipodi:role="line">Jevons' Prediction</tspan></text>
    <text
       sodipodi:linespacing="125%"
       id="text6200-6-1"
       y="395.77176"
       x="1253.8597"
       style="font-style:normal;font-variant:normal;font-weight:bold;font-stretch:normal;font-size:114.21943665px;line-height:125%;font-family:sans-serif;-inkscape-font-specification:'sans-serif Bold';letter-spacing:0px;word-spacing:0px;fill:#ffffff;fill-opacity:1;stroke:none;stroke-width:1px;stroke-linecap:butt;stroke-linejoin:miter;stroke-opacity:1"
       xml:space="preserve"><tspan
         style="font-style:normal;font-variant:normal;font-weight:bold;font-stretch:normal;font-size:28.55485916px;font-family:sans-serif;-inkscape-font-specification:'sans-serif Bold';fill:#ffffff;fill-opacity:1"
         y="395.77176"
         x="1253.8597"
         id="tspan6202-1-1"
         sodipodi:role="line">Actual</tspan></text>
    <text
       sodipodi:linespacing="125%"
       id="text6200-6-7-78"
       y="364.16635"
       x="1268.4093"
       style="font-style:normal;font-weight:normal;font-size:114.21943665px;line-height:125%;font-family:sans-serif;letter-spacing:0px;word-spacing:0px;fill:#ffffff;fill-opacity:1;stroke:none;stroke-width:1px;stroke-linecap:butt;stroke-linejoin:miter;stroke-opacity:1"
       xml:space="preserve"><tspan
         style="font-style:normal;font-variant:normal;font-weight:bold;font-stretch:normal;font-size:49.97100449px;font-family:'PT Sans';-inkscape-font-specification:'PT Sans Bold';fill:#ffffff;fill-opacity:1"
         y="364.16635"
         x="1268.4093"
         id="tspan6202-1-7-1"
         sodipodi:role="line">3.7</tspan></text>
    <text
       sodipodi:linespacing="125%"
       id="text6200-6-7-7-9"
       y="232.12105"
       x="1274.3831"
       style="font-style:normal;font-weight:normal;font-size:114.21943665px;line-height:125%;font-family:sans-serif;letter-spacing:0px;word-spacing:0px;fill:#2196f3;fill-opacity:1;stroke:none;stroke-width:1px;stroke-linecap:butt;stroke-linejoin:miter;stroke-opacity:1"
       xml:space="preserve"><tspan
         style="font-style:normal;font-variant:normal;font-weight:bold;font-stretch:normal;font-size:49.97100449px;font-family:'PT Sans';-inkscape-font-specification:'PT Sans Bold';fill:#2196f3;fill-opacity:1"
         y="232.12105"
         x="1274.3831"
         id="tspan6202-1-7-2-6"
         sodipodi:role="line">50</tspan></text>
  </g>
</svg>
